<svg enable-background="new 0 0 512 512" viewBox="0 0 512 512" xmlns="http://www.w3.org/2000/svg"><path d="m8.828 8.828h158.897v247.172h-158.897z" fill="#fff"/><path d="m97.103 8.828h158.897v247.172h-158.897z" fill="#a4c2f7"/><path d="m256 256h247.172v247.172h-247.172z" fill="#a4c2f7"/><path d="m35.31 8.828h194.207v247.172h-194.207z" fill="#e3e7f2"/><path d="m8.828 256h158.897v247.172h-158.897z" fill="#fff"/><path d="m97.103 256h158.897v247.172h-158.897z" fill="#7facfa"/><path d="m35.31 256h194.207v247.172h-194.207z" fill="#a4c2f7"/><path d="m256 256h220.69v247.172h-220.69z" fill="#e3e7f2"/><path d="m256 8.828h247.172v247.172h-247.172z" fill="#7facfa"/><path d="m256 8.828h220.69v247.172h-220.69z" fill="#a4c2f7"/><g fill="#428dff"><path d="m185.379 141.241h-105.931c-4.875 0-8.828-3.952-8.828-8.828 0-4.875 3.952-8.828 8.828-8.828h105.931c4.875 0 8.828 3.952 8.828 8.828s-3.952 8.828-8.828 8.828z"/><path d="m132.414 194.207c-2.341.001-4.587-.929-6.243-2.585s-2.585-3.901-2.585-6.243v-105.931c0-4.875 3.952-8.828 8.828-8.828 4.875 0 8.828 3.952 8.828 8.828v105.931c.001 2.341-.929 4.587-2.585 6.243s-3.902 2.586-6.243 2.585z"/><path d="m432.552 141.241h-105.931c-4.875 0-8.828-3.952-8.828-8.828 0-4.875 3.952-8.828 8.828-8.828h105.931c4.875 0 8.828 3.952 8.828 8.828-.001 4.876-3.953 8.828-8.828 8.828z"/><path d="m503.172 512h-494.344c-2.341.001-4.587-.929-6.243-2.585-1.656-1.656-2.585-3.901-2.585-6.243v-494.344c-.001-2.342.929-4.588 2.585-6.243s3.901-2.586 6.243-2.585h494.345c2.341-.001 4.587.929 6.243 2.585s2.585 3.901 2.585 6.243v494.345c.001 2.341-.929 4.587-2.585 6.243-1.657 1.655-3.902 2.585-6.244 2.584zm-485.517-17.655h476.69v-476.69h-476.69z"/><path d="m256 264.828h-247.172c-2.341.001-4.587-.929-6.243-2.585-1.656-1.656-2.586-3.902-2.585-6.243v-247.172c-.001-2.342.929-4.588 2.585-6.243s3.901-2.586 6.243-2.585h247.172c2.341-.001 4.587.929 6.243 2.585s2.585 3.901 2.585 6.243v247.172c.001 2.341-.929 4.587-2.585 6.243-1.656 1.655-3.902 2.585-6.243 2.585zm-238.345-17.656h229.517v-229.517h-229.517z"/><path d="m503.172 264.828h-247.172c-2.341.001-4.587-.929-6.243-2.585s-2.585-3.901-2.585-6.243v-247.172c-.001-2.341.929-4.587 2.585-6.243 1.656-1.656 3.902-2.586 6.243-2.585h247.172c2.341-.001 4.587.929 6.243 2.585s2.585 3.901 2.585 6.243v247.172c.001 2.341-.929 4.587-2.585 6.243-1.656 1.655-3.901 2.585-6.243 2.585zm-238.344-17.656h229.517v-229.517h-229.517z"/><path d="m256 512h-247.172c-2.341.001-4.587-.929-6.243-2.585-1.656-1.656-2.585-3.901-2.585-6.243v-247.172c-.001-2.341.929-4.587 2.585-6.243s3.901-2.585 6.243-2.585h247.172c2.341-.001 4.587.929 6.243 2.585s2.585 3.901 2.585 6.243v247.172c.001 2.341-.929 4.587-2.585 6.243s-3.902 2.586-6.243 2.585zm-238.345-17.655h229.517v-229.517h-229.517z"/><path d="m503.172 512h-247.172c-2.341.001-4.587-.929-6.243-2.585s-2.585-3.901-2.585-6.243v-247.172c-.001-2.341.929-4.587 2.585-6.243s3.901-2.585 6.243-2.585h247.172c2.341-.001 4.587.929 6.243 2.585s2.585 3.901 2.585 6.243v247.172c.001 2.341-.929 4.587-2.585 6.243s-3.901 2.586-6.243 2.585zm-238.344-17.655h229.517v-229.517h-229.517z"/><path d="m432.552 414.897h-105.931c-4.875 0-8.828-3.952-8.828-8.828s3.952-8.828 8.828-8.828h105.931c4.875 0 8.828 3.952 8.828 8.828s-3.953 8.828-8.828 8.828z"/><path d="m432.552 361.931h-105.931c-4.875 0-8.828-3.952-8.828-8.828s3.952-8.828 8.828-8.828h105.931c4.875 0 8.828 3.952 8.828 8.828s-3.953 8.828-8.828 8.828z"/><path d="m132.414 388.414c-3.57-.001-6.788-2.152-8.154-5.45s-.611-7.094 1.913-9.619l44.138-44.138c3.456-3.394 9.001-3.369 12.426.056s3.45 8.97.056 12.426l-44.138 44.138c-1.653 1.659-3.9 2.589-6.241 2.587z"/><path d="m88.276 432.552c-3.57-.001-6.788-2.152-8.154-5.45s-.611-7.094 1.913-9.619l44.138-44.138c3.456-3.394 9.001-3.369 12.426.056s3.45 8.97.056 12.426l-44.138 44.138c-1.653 1.659-3.899 2.589-6.241 2.587z"/><path d="m176.552 432.552c-2.342.003-4.588-.928-6.241-2.586l-44.138-44.138c-3.394-3.456-3.369-9.001.056-12.426s8.97-3.45 12.426-.056l44.138 44.138c2.524 2.525 3.279 6.321 1.913 9.619-1.366 3.297-4.584 5.448-8.154 5.449z"/><path d="m132.414 388.414c-2.342.003-4.588-.928-6.241-2.586l-44.138-44.138c-3.394-3.456-3.369-9.001.056-12.426s8.97-3.45 12.426-.056l44.138 44.138c2.524 2.525 3.279 6.321 1.913 9.619-1.366 3.297-4.584 5.448-8.154 5.449z"/></g></svg>